<?xml version="1.0" encoding="UTF-8" standalone="no"?><!DOCTYPE svg PUBLIC "-//W3C//DTD SVG 1.1//EN" "http://www.w3.org/Graphics/SVG/1.1/DTD/svg11.dtd"><svg width="100%" height="100%" viewBox="0 0 567 617" version="1.1" xmlns="http://www.w3.org/2000/svg" xmlns:xlink="http://www.w3.org/1999/xlink" xml:space="preserve" xmlns:serif="http://www.serif.com/" style="fill-rule:evenodd;clip-rule:evenodd;stroke-linejoin:round;stroke-miterlimit:2;"><g id="RULES"><path d="M-0.007,291.588l80.833,-0l0,-88.333l35.834,-0l58.75,88.333l92.916,-0l-69.583,-101.667c36.25,-15.416 60,-45 60,-90l0,-0.833c0,-28.75 -8.75,-50.833 -25.833,-67.917c-19.584,-19.583 -50.417,-31.25 -95,-31.25l-137.917,0l0,291.667Zm80.833,-151.667l0,-70.416l53.334,-0c26.666,-0 43.75,11.666 43.75,35l-0,0.833c-0,21.25 -16.25,34.583 -43.334,34.583l-53.75,0Z" style="fill-rule:nonzero;"/><path d="M430.826,288.671c82.917,0 136.667,-41.666 136.667,-135.416l0,-153.334l-81.667,0l0,155.834c0,40.833 -21.25,60 -54.166,60c-32.5,-0 -53.75,-20 -53.75,-62.084l-0,-153.75l-81.667,0l0,155.417c0,91.25 52.083,133.333 134.583,133.333Z" style="fill-rule:nonzero;"/><rect x="296.243" y="545.755" width="271.25" height="70.833"/><rect x="296.243" y="324.921" width="271.25" height="70.833"/><rect x="296.243" y="437.421" width="271.25" height="70.833"/><path d="M-0.007,616.588l255.417,-0l-0,-70.833l-174.584,-0l0,-220.834l-80.833,0l0,291.667Z" style="fill-rule:nonzero;"/></g></svg>